# xmcd
#
# Track frame offsets:
#	150
#	12576
#	21526
#	37626
#	48355
#	61871
#	73089
#	84312
#	98227
#	110987
#	123861
#	136243
#	149075
#	167185
#	178620
#	192182
#	200920
#	212923
#	224801
#	242721
#	254996
#	266756
#	280098
#	295204
#	306567
#
# Disc length: 4254 seconds
#
# Revision: 2
# Processed by: cddbd v1.4PL0 Copyright (c) Steve Scherf et al.
# Submitted via: MusicWizard 6.0.0
#
DISCID=9d109c19
DTITLE=Various Artist - 100 Country Greats CD 2/4
DYEAR=1999
DGENRE=Country
TTITLE0=Merle Haggard - Okie From Muskogee
TTITLE1=Sandy Posey - Born A Woman
TTITLE2=Johnny Lee - Lookin' For Love
TTITLE3=Mickey Gilley - She Called Me Baby
TTITLE4=Timi Yuro and Willie Nelson - Did I Ever Love You
TTITLE5=George Jones - Swinging Doors
TTITLE6=Hank Locklin - Let Me Be The One
TTITLE7=The Kendalls - Cryin' Time
TTITLE8=Slim Whitman - Tennessee Waltz
TTITLE9=Roy Rogers - Way Out There
TTITLE10=Eddy Arnold - I'll Hold You In My Heart
TTITLE11=Bill Anderson - Still
TTITLE12=T. Graham Brown - Don't Go To Strangers
TTITLE13=Mel Mcdaniel - Stand Up
TTITLE14=Deborah Allen - I've Been Wrong Before
TTITLE15=Waylong Jennings - Love's Gonna Live Here
TTITLE16=Kenny Rogers - Me And Bobby Mcgee
TTITLE17=Conway Twitty - (Lying Here With) Linda On My Mind
TTITLE18=Don Williams - Good Ole Boys Like Me (Live)
TTITLE19=Crystal Gayle - Don't It Make My Brown Eyes Blue
TTITLE20=Patsy Cline - A Poor Man's Roses
TTITLE21=Johnny Russell - Catfish John
TTITLE22=Lynn Anderson - Desperado
TTITLE23=Charlie Ryan and The Timberline Riders - Hot Rod Lincoln
TTITLE24=Johnny Cash - I Still Miss Someone (Live)
EXTD=(C)1999 Castle Music Ltd England\nupc Pbx Cd 442/2 Year: 1999
EXTT0=
EXTT1=
EXTT2=
EXTT3=
EXTT4=
EXTT5=
EXTT6=
EXTT7=
EXTT8=
EXTT9=
EXTT10=
EXTT11=
EXTT12=
EXTT13=
EXTT14=
EXTT15=
EXTT16=
EXTT17=
EXTT18=
EXTT19=
EXTT20=
EXTT21=
EXTT22=
EXTT23=
EXTT24=
PLAYORDER=
